<mxfile host="app.diagrams.net" agent="Mozilla/5.0 (Windows NT 10.0; Win64; x64) AppleWebKit/537.36 (KHTML, like Gecko) Chrome/119.0.0.0 Safari/537.36" version="24.7.17">
  <diagram id="kQm1WyOccjyHnlNSDJr9" name="第 1 页">
    <mxGraphModel dx="819" dy="441" grid="1" gridSize="10" guides="1" tooltips="1" connect="1" arrows="1" fold="1" page="1" pageScale="1" pageWidth="827" pageHeight="1169" math="0" shadow="0">
      <root>
        <mxCell id="0" />
        <mxCell id="1" parent="0" />
        <mxCell id="yK7P3pugAWHu_ZcFfTPJ-110" value="" style="rounded=0;whiteSpace=wrap;html=1;dashed=1;dashPattern=1 2;fontSize=8;fillColor=#e1d5e7;strokeColor=none;" parent="1" vertex="1">
          <mxGeometry x="190" y="430" width="590" height="350" as="geometry" />
        </mxCell>
        <mxCell id="yK7P3pugAWHu_ZcFfTPJ-111" value="" style="rounded=0;whiteSpace=wrap;html=1;dashed=1;dashPattern=1 2;fontSize=8;strokeColor=#474747;" parent="1" vertex="1">
          <mxGeometry x="200" y="454" width="570" height="250" as="geometry" />
        </mxCell>
        <mxCell id="XB4cOwGrYAVRW5jCook7-7" value="" style="rounded=0;whiteSpace=wrap;html=1;fillColor=#d5e8d4;strokeColor=none;fontSize=8;" parent="1" vertex="1">
          <mxGeometry x="210" y="540" width="550" height="90" as="geometry" />
        </mxCell>
        <mxCell id="yK7P3pugAWHu_ZcFfTPJ-115" value="&lt;font style=&quot;font-size: 8px;&quot;&gt;Kubernetes 或 docker&lt;/font&gt;" style="rounded=0;whiteSpace=wrap;html=1;fillColor=none;strokeColor=none;fontSize=8;" parent="1" vertex="1">
          <mxGeometry x="190" y="450" width="110" height="20" as="geometry" />
        </mxCell>
        <mxCell id="yK7P3pugAWHu_ZcFfTPJ-116" value="" style="rounded=0;whiteSpace=wrap;html=1;fillColor=#d5e8d4;strokeColor=none;fontSize=8;" parent="1" vertex="1">
          <mxGeometry x="210" y="470" width="550" height="60" as="geometry" />
        </mxCell>
        <mxCell id="yK7P3pugAWHu_ZcFfTPJ-117" value="前端：微服务" style="rounded=0;whiteSpace=wrap;html=1;fillColor=none;strokeColor=none;fontSize=8;" parent="1" vertex="1">
          <mxGeometry x="210" y="470" width="70" height="20" as="geometry" />
        </mxCell>
        <mxCell id="yK7P3pugAWHu_ZcFfTPJ-168" value="" style="group" parent="1" vertex="1" connectable="0">
          <mxGeometry x="250" y="630" width="510" height="90" as="geometry" />
        </mxCell>
        <mxCell id="yK7P3pugAWHu_ZcFfTPJ-169" value="" style="rounded=0;whiteSpace=wrap;html=1;fillColor=#d5e8d4;strokeColor=none;fontSize=8;" parent="yK7P3pugAWHu_ZcFfTPJ-168" vertex="1">
          <mxGeometry x="-40" y="10" width="550" height="55" as="geometry" />
        </mxCell>
        <mxCell id="yK7P3pugAWHu_ZcFfTPJ-170" value="日志查询服务" style="rounded=0;whiteSpace=wrap;html=1;fillColor=#dae8fc;strokeColor=#6c8ebf;fontSize=8;flipH=0;flipV=1;" parent="yK7P3pugAWHu_ZcFfTPJ-168" vertex="1">
          <mxGeometry x="-30" y="30.999999999999993" width="75" height="22" as="geometry" />
        </mxCell>
        <mxCell id="yK7P3pugAWHu_ZcFfTPJ-172" value="链路跟踪" style="rounded=0;whiteSpace=wrap;html=1;fillColor=#dae8fc;strokeColor=#6c8ebf;fontSize=8;flipH=0;flipV=1;" parent="yK7P3pugAWHu_ZcFfTPJ-168" vertex="1">
          <mxGeometry x="70" y="31.199999999999992" width="75" height="22" as="geometry" />
        </mxCell>
        <mxCell id="yK7P3pugAWHu_ZcFfTPJ-173" value="告警服务" style="rounded=0;whiteSpace=wrap;html=1;fillColor=#dae8fc;strokeColor=#6c8ebf;fontSize=8;flipH=0;flipV=1;" parent="yK7P3pugAWHu_ZcFfTPJ-168" vertex="1">
          <mxGeometry x="392" y="30.199999999999996" width="75" height="22" as="geometry" />
        </mxCell>
        <mxCell id="yK7P3pugAWHu_ZcFfTPJ-174" value="埋点解析" style="rounded=0;whiteSpace=wrap;html=1;fillColor=#dae8fc;strokeColor=#6c8ebf;fontSize=8;flipH=0;flipV=1;" parent="yK7P3pugAWHu_ZcFfTPJ-168" vertex="1">
          <mxGeometry x="180" y="31.199999999999996" width="75" height="22" as="geometry" />
        </mxCell>
        <mxCell id="yK7P3pugAWHu_ZcFfTPJ-180" value="监控服务" style="rounded=0;whiteSpace=wrap;html=1;fillColor=#dae8fc;strokeColor=#6c8ebf;fontSize=8;flipH=0;flipV=1;" parent="yK7P3pugAWHu_ZcFfTPJ-168" vertex="1">
          <mxGeometry x="289.25" y="31.200000000000045" width="75" height="22" as="geometry" />
        </mxCell>
        <mxCell id="yK7P3pugAWHu_ZcFfTPJ-199" value="&lt;font style=&quot;font-size: 8px;&quot;&gt;服务&lt;/font&gt;" style="rounded=0;whiteSpace=wrap;html=1;fillColor=none;strokeColor=none;fontSize=8;" parent="1" vertex="1">
          <mxGeometry x="177" y="430" width="66" height="20" as="geometry" />
        </mxCell>
        <mxCell id="yK7P3pugAWHu_ZcFfTPJ-145" value="资产管理" style="rounded=0;whiteSpace=wrap;html=1;fontSize=8;verticalAlign=middle;fillColor=#f5f5f5;fontColor=#333333;strokeColor=#666666;" parent="1" vertex="1">
          <mxGeometry x="294" y="490.0015789473684" width="64" height="27.37" as="geometry" />
        </mxCell>
        <mxCell id="yK7P3pugAWHu_ZcFfTPJ-136" value="系统管理" style="rounded=0;whiteSpace=wrap;html=1;fontSize=8;verticalAlign=middle;flipH=1;fillColor=#f5f5f5;fontColor=#333333;strokeColor=#666666;" parent="1" vertex="1">
          <mxGeometry x="216" y="490" width="64" height="27.37" as="geometry" />
        </mxCell>
        <mxCell id="yK7P3pugAWHu_ZcFfTPJ-142" value="流程管理" style="rounded=0;whiteSpace=wrap;html=1;fillColor=#dae8fc;strokeColor=#6c8ebf;fontSize=8;verticalAlign=middle;flipH=1;" parent="1" vertex="1">
          <mxGeometry x="215.57629629629628" y="597.6257894736841" width="64" height="27.37" as="geometry" />
        </mxCell>
        <mxCell id="yK7P3pugAWHu_ZcFfTPJ-143" value="消息中心" style="rounded=0;whiteSpace=wrap;html=1;fillColor=#dae8fc;strokeColor=#6c8ebf;fontSize=8;verticalAlign=middle;flipH=1;" parent="1" vertex="1">
          <mxGeometry x="293.58" y="597.6257894736841" width="64" height="27.37" as="geometry" />
        </mxCell>
        <mxCell id="yK7P3pugAWHu_ZcFfTPJ-148" value="物联网平台" style="rounded=0;whiteSpace=wrap;html=1;fillColor=#dae8fc;strokeColor=#6c8ebf;fontSize=8;verticalAlign=middle;" parent="1" vertex="1">
          <mxGeometry x="684.5899999999999" y="556.9957894736841" width="64" height="27.37" as="geometry" />
        </mxCell>
        <mxCell id="yK7P3pugAWHu_ZcFfTPJ-149" value="API网关服务" style="rounded=0;whiteSpace=wrap;html=1;fillColor=#dae8fc;strokeColor=#6c8ebf;fontSize=8;verticalAlign=middle;flipH=1;" parent="1" vertex="1">
          <mxGeometry x="371.5788888888889" y="597.6257894736842" width="64" height="27.37" as="geometry" />
        </mxCell>
        <mxCell id="yK7P3pugAWHu_ZcFfTPJ-165" value="区域治理" style="rounded=0;whiteSpace=wrap;html=1;fillColor=#dae8fc;strokeColor=#6c8ebf;fontSize=8;verticalAlign=middle;" parent="1" vertex="1">
          <mxGeometry x="606" y="490" width="64" height="27.37" as="geometry" />
        </mxCell>
        <mxCell id="XB4cOwGrYAVRW5jCook7-8" value="后端：微服务" style="rounded=0;whiteSpace=wrap;html=1;fillColor=none;strokeColor=none;fontSize=8;" parent="1" vertex="1">
          <mxGeometry x="210" y="540" width="70" height="20" as="geometry" />
        </mxCell>
        <mxCell id="yK7P3pugAWHu_ZcFfTPJ-171" value="工具服务" style="rounded=0;whiteSpace=wrap;html=1;strokeColor=none;fillColor=none;fontSize=8;" parent="1" vertex="1">
          <mxGeometry x="203" y="638.2" width="70" height="22" as="geometry" />
        </mxCell>
        <mxCell id="XB4cOwGrYAVRW5jCook7-9" value="物业管理" style="rounded=0;whiteSpace=wrap;html=1;fillColor=#dae8fc;strokeColor=#6c8ebf;fontSize=8;verticalAlign=middle;" parent="1" vertex="1">
          <mxGeometry x="372" y="490.00157894736844" width="64" height="27.37" as="geometry" />
        </mxCell>
        <mxCell id="XB4cOwGrYAVRW5jCook7-10" value="招商管理" style="rounded=0;whiteSpace=wrap;html=1;fillColor=#dae8fc;strokeColor=#6c8ebf;fontSize=8;verticalAlign=middle;" parent="1" vertex="1">
          <mxGeometry x="528" y="490.00157894736844" width="64" height="27.37" as="geometry" />
        </mxCell>
        <mxCell id="XB4cOwGrYAVRW5jCook7-13" value="智慧楼宇" style="rounded=0;whiteSpace=wrap;html=1;fillColor=#dae8fc;strokeColor=#6c8ebf;fontSize=8;verticalAlign=middle;" parent="1" vertex="1">
          <mxGeometry x="450" y="490.00157894736844" width="64" height="27.37" as="geometry" />
        </mxCell>
        <mxCell id="XB4cOwGrYAVRW5jCook7-20" value="其他" style="rounded=0;whiteSpace=wrap;html=1;fillColor=#dae8fc;strokeColor=#6c8ebf;fontSize=8;verticalAlign=middle;" parent="1" vertex="1">
          <mxGeometry x="684.5862962962963" y="490" width="64" height="27.37" as="geometry" />
        </mxCell>
        <mxCell id="XB4cOwGrYAVRW5jCook7-21" value="资产管理" style="rounded=0;whiteSpace=wrap;html=1;fontSize=8;verticalAlign=middle;fillColor=#f5f5f5;fontColor=#333333;strokeColor=#666666;" parent="1" vertex="1">
          <mxGeometry x="293.58" y="557.0015789473684" width="64" height="27.37" as="geometry" />
        </mxCell>
        <mxCell id="XB4cOwGrYAVRW5jCook7-22" value="系统管理" style="rounded=0;whiteSpace=wrap;html=1;fontSize=8;verticalAlign=middle;flipH=1;fillColor=#f5f5f5;fontColor=#333333;strokeColor=#666666;" parent="1" vertex="1">
          <mxGeometry x="215.58" y="557" width="64" height="27.37" as="geometry" />
        </mxCell>
        <mxCell id="XB4cOwGrYAVRW5jCook7-23" value="区域治理" style="rounded=0;whiteSpace=wrap;html=1;fillColor=#dae8fc;strokeColor=#6c8ebf;fontSize=8;verticalAlign=middle;" parent="1" vertex="1">
          <mxGeometry x="605.58" y="557" width="64" height="27.37" as="geometry" />
        </mxCell>
        <mxCell id="XB4cOwGrYAVRW5jCook7-24" value="物业管理" style="rounded=0;whiteSpace=wrap;html=1;fillColor=#dae8fc;strokeColor=#6c8ebf;fontSize=8;verticalAlign=middle;" parent="1" vertex="1">
          <mxGeometry x="371.58" y="557.0015789473684" width="64" height="27.37" as="geometry" />
        </mxCell>
        <mxCell id="XB4cOwGrYAVRW5jCook7-25" value="招商管理" style="rounded=0;whiteSpace=wrap;html=1;fillColor=#dae8fc;strokeColor=#6c8ebf;fontSize=8;verticalAlign=middle;" parent="1" vertex="1">
          <mxGeometry x="527.58" y="557.0015789473684" width="64" height="27.37" as="geometry" />
        </mxCell>
        <mxCell id="XB4cOwGrYAVRW5jCook7-26" value="智慧楼宇" style="rounded=0;whiteSpace=wrap;html=1;fillColor=#dae8fc;strokeColor=#6c8ebf;fontSize=8;verticalAlign=middle;" parent="1" vertex="1">
          <mxGeometry x="449.58" y="557.0015789473684" width="64" height="27.37" as="geometry" />
        </mxCell>
      </root>
    </mxGraphModel>
  </diagram>
</mxfile>
